<?xml version="1.0" encoding="UTF-8" ?>
<!DOCTYPE svg PUBLIC "-//W3C//DTD SVG 1.1//EN" "http://www.w3.org/Graphics/SVG/1.1/DTD/svg11.dtd">
<svg width="250pt" height="337pt" viewBox="0 0 250 337" version="1.1" xmlns="http://www.w3.org/2000/svg">
<g id="#ffffffff">
<path fill="#ffffff" opacity="1.00" d=" M 8.38 9.56 C 82.58 9.41 156.78 9.55 230.99 9.48 C 236.20 8.93 241.27 13.61 241.00 18.87 C 241.00 119.26 240.99 219.66 241.01 320.05 C 241.34 324.47 237.99 328.74 233.67 329.59 C 231.13 329.90 228.56 329.72 226.01 329.75 C 155.34 329.75 84.67 329.74 14.00 329.76 C 11.12 329.63 7.98 330.25 5.34 328.79 C 2.12 327.18 -0.02 323.64 0.24 320.02 C 0.28 219.39 0.22 118.76 0.26 18.13 C 0.42 13.85 4.13 9.97 8.38 9.56 M 57.39 61.56 C 53.75 63.06 51.31 66.95 51.50 70.89 C 51.52 136.94 51.47 202.99 51.52 269.04 C 51.49 274.11 56.02 278.58 61.09 278.48 C 100.73 278.51 140.36 278.51 180.00 278.48 C 185.18 278.68 189.83 274.07 189.73 268.90 C 189.79 261.59 189.71 254.28 189.77 246.97 C 190.13 240.88 185.76 234.88 179.86 233.35 C 154.54 226.03 129.20 218.73 103.87 211.44 C 101.33 210.63 98.28 210.27 96.61 207.93 C 95.74 205.32 97.72 203.20 99.79 201.96 C 126.66 184.10 153.50 166.21 180.42 148.41 C 186.31 144.83 189.99 137.90 189.77 131.02 C 189.71 110.71 189.79 90.40 189.73 70.09 C 189.69 65.05 185.07 60.67 180.06 60.77 C 142.03 60.72 104.00 60.77 65.98 60.74 C 63.12 60.80 60.10 60.39 57.39 61.56 Z" />
<path fill="#ffffff" opacity="1.00" d=" M 112.51 77.72 C 118.80 75.69 125.89 76.07 131.86 78.96 C 139.36 82.52 144.91 89.92 146.12 98.15 C 147.34 105.58 145.11 113.51 140.15 119.18 C 133.96 126.38 123.64 129.66 114.43 127.29 C 103.78 124.84 95.48 114.99 94.90 104.08 C 93.82 92.61 101.53 81.13 112.51 77.72 Z" />
</g>
</svg>
